<svg xmlns="http://www.w3.org/2000/svg" width="404" height="274" viewBox="0 0 404 274" fill="none"><path d="M341.195 273.305C322.015 272.965 302.985 271.295 284.065 267.935C262.365 264.075 240.925 258.965 220.355 251.285C196.945 242.545 173.605 233.405 151.415 221.715C124.955 207.785 99.635 192.085 76.285 173.325C64.585 163.925 53.435 153.835 44.025 142.145C24.945 118.435 8.77499 93.0448 2.31499 62.6848C0.154994 52.5448 -1.3651 42.2648 1.8449 31.9848C2.3049 30.5048 2.89497 29.0648 3.53497 27.6448C5.69497 22.8748 11.1749 22.2548 14.4749 26.3248C19.9549 33.0848 24.2349 40.5847 28.2249 48.2847C35.6049 62.5047 41.2449 77.5948 49.8649 91.1748C52.5049 95.3348 55.3749 99.3547 59.7349 101.935C61.3549 102.895 63.375 104.315 65.075 102.705C66.485 101.375 65.795 99.2247 65.075 97.5747C61.905 90.2147 58.6549 82.8948 55.3849 75.5748C50.8449 65.4348 45.995 55.3947 43.185 44.5947C40.845 35.5847 40.625 26.3948 42.565 17.2648C43.235 14.1048 44.7249 11.1148 47.2449 8.91475C50.8749 5.73475 54.105 6.43476 56.325 10.6748C59.755 17.2548 61.405 24.4648 63.655 31.4548C65.435 36.9948 67.285 42.5048 70.085 47.6248C75.365 57.2748 79.015 67.6748 83.805 77.5448C84.825 79.6448 85.3349 83.5248 87.8449 82.9248C90.0649 82.3948 89.695 78.5648 89.785 76.0048C90.155 65.5748 88.0449 55.4248 86.5149 45.1948C84.4849 31.6748 84.845 18.3448 91.805 5.95479C92.785 4.20479 94.075 2.79475 95.535 1.53475C97.865 -0.465251 100.555 -0.265229 103.245 0.744771C105.695 1.66477 106.365 3.81479 106.365 6.07479C106.365 12.2948 105.765 18.5247 106.125 24.7147C106.985 39.4347 111.275 53.1248 119.685 65.3848C119.835 65.5948 119.895 65.8848 120.075 66.0548C121.735 67.6148 123.125 70.2948 125.655 69.6448C128.175 68.9948 127.605 66.1048 127.995 64.0048C128.975 58.8148 129.415 53.4747 132.375 48.8447C134.565 45.4347 137.575 43.2448 141.675 43.6148C145.715 43.9848 146.895 47.5348 147.915 50.7248C151.065 60.6348 151.785 71.0048 153.415 81.2048C155.165 92.1748 156.525 103.195 161.565 113.385C165.825 121.995 171.995 128.975 178.635 135.735C192.345 149.705 209.655 157.725 227.185 165.335C248.115 174.415 270.095 180.455 291.845 187.135C315.675 194.455 339.785 200.925 363.265 209.355C374.915 213.535 386.675 217.775 396.145 226.295C400.485 230.205 402.895 235.075 403.035 240.945C403.445 257.845 395.315 267.055 377.135 270.355C374.335 270.865 371.545 271.595 368.725 271.805C359.555 272.485 350.405 273.375 341.195 273.305ZM119.125 165.365C116.735 165.525 114.925 166.675 114.075 168.905C113.255 171.065 114.415 172.575 116.185 173.775C117.465 174.645 118.605 175.705 119.875 176.565C126.895 181.325 133.885 186.135 141.755 189.445C143.595 190.215 145.295 190.665 146.965 188.745C149.665 185.635 149.545 183.135 145.565 180.945C137.435 176.485 129.675 171.465 122.045 166.225C121.135 165.595 120.205 165.345 119.125 165.375V165.365ZM322.935 254.145C325.995 254.145 327.935 254.125 329.885 254.145C332.575 254.185 335.215 254.235 335.565 250.525C335.945 246.535 334.835 244.615 330.895 243.865C322.745 242.295 314.405 243.785 306.185 242.515C303.805 242.145 302.145 244.185 302.065 246.725C301.975 249.495 302.775 251.985 305.965 252.545C311.945 253.585 317.945 254.495 322.935 254.145ZM301.625 225.325C305.635 225.325 308.615 225.345 311.585 225.325C314.155 225.305 315.145 223.885 315.365 221.415C315.725 217.305 313.085 216.055 309.935 216.045C301.285 216.035 292.695 214.735 284.035 215.155C280.845 215.305 279.545 217.155 279.595 219.845C279.645 222.515 281.045 224.655 284.135 224.555C290.335 224.365 296.455 226.005 301.635 225.335L301.625 225.325ZM261.625 228.615C261.685 226.385 260.815 224.895 258.445 224.525C250.575 223.305 242.735 221.885 235.055 219.775C232.255 219.005 230.125 219.525 229.055 222.285C228.025 224.925 229.875 227.975 232.865 228.865C240.125 231.045 247.505 232.755 255.015 233.795C258.615 234.285 261.695 231.795 261.635 228.615H261.625ZM152.665 144.925C152.945 143.505 152.255 142.255 151.785 140.905C149.855 135.425 145.145 132.115 141.685 127.835C139.645 125.305 136.225 124.875 134.255 126.665C132.305 128.435 132.035 132.155 134.165 134.365C138.085 138.465 140.755 143.455 144.265 147.845C145.565 149.475 146.755 151.315 149.325 150.345C151.785 149.415 153.165 147.775 152.675 144.925H152.665ZM183.425 208.825C180.215 208.445 178.395 210.035 177.725 212.905C177.075 215.705 179.065 216.725 181.275 217.505C186.465 219.345 191.645 221.175 196.795 223.115C199.765 224.235 202.365 223.765 203.715 220.905C205.225 217.695 203.165 215.225 200.535 213.945C195.145 211.305 189.275 209.985 183.425 208.825ZM189.695 185.685C195.335 185.715 197.225 184.115 196.215 179.965C195.665 177.695 193.935 176.375 191.825 175.455C188.145 173.855 184.275 173.075 180.315 172.605C178.065 172.335 175.435 172.145 174.685 174.485C173.835 177.105 173.665 180.495 176.855 181.975C180.905 183.855 184.985 185.965 189.695 185.675V185.685ZM244.105 200.445C245.135 200.445 246.195 200.565 247.205 200.425C249.785 200.065 250.065 197.705 250.605 195.885C251.145 194.085 250.185 192.415 248.305 191.975C243.425 190.835 238.575 189.525 233.495 189.425C230.695 189.375 229.445 190.925 228.975 193.225C228.485 195.635 229.255 197.645 231.985 198.215C236.005 199.055 239.905 200.535 244.095 200.445H244.105ZM368.375 246.355C371.695 246.605 374.675 245.175 377.685 244.205C380.645 243.245 381.035 240.485 380.505 237.785C380.015 235.285 377.915 234.615 375.775 234.885C372.865 235.255 370.005 236.015 367.145 236.685C363.695 237.495 362.215 239.755 362.735 243.225C363.245 246.635 365.885 246.405 368.375 246.345V246.355Z" fill="#00B4E1"></path></svg>