<svg xmlns="http://www.w3.org/2000/svg" width="359" height="213" viewBox="0 0 359 213" fill="none"><path d="M11.7315 133.709C14.2615 139.349 16.3715 143.109 17.6415 147.129C19.4315 152.779 19.9615 158.889 22.1415 164.359C33.2115 192.079 50.3915 196.889 74.2715 179.079C78.9615 175.579 83.1015 171.349 87.9215 167.079C85.4515 157.879 82.9915 149.399 80.8915 140.819C73.1415 109.109 77.8515 78.6492 90.6815 49.1492C92.4415 45.0992 95.0016 41.3091 97.6516 37.7291C105.222 27.4891 114.632 20.8792 128.212 23.9392C140.192 26.6392 149.652 37.0192 150.372 51.6892C151.902 82.8292 146.582 112.699 128.452 138.999C118.372 153.619 117.772 157.169 126.052 168.199C136.732 182.439 152.542 189.339 164.662 182.209C175.352 175.919 185.032 167.089 193.122 157.639C196.452 153.759 195.902 145.019 194.662 138.999C188.182 107.599 190.052 76.5491 198.602 46.0391C201.752 34.7791 207.122 23.6692 213.622 13.9192C221.762 1.72915 236.062 -2.7508 246.832 1.6592C259.552 6.8692 264.872 17.7992 263.672 30.4592C262.132 46.6692 259.852 63.1292 255.132 78.6392C249.732 96.3792 242.252 113.669 233.862 130.229C228.222 141.359 230.022 149.829 236.612 159.029C250.512 178.409 272.572 185.689 293.482 173.929C309.442 164.949 323.272 152.049 337.492 140.219C343.462 135.249 347.992 128.549 353.182 122.629C354.862 123.369 356.552 124.109 358.232 124.849C356.632 132.969 356.312 141.629 353.212 149.129C341.492 177.459 320.552 196.929 292.052 207.799C266.332 217.609 243.672 210.399 223.832 192.879C218.412 188.089 214.362 181.759 208.782 175.049C190.612 190.559 178.232 210.269 153.932 211.039C131.002 211.759 114.802 198.859 98.0516 182.799C90.0416 189.019 82.7915 195.029 75.1415 200.499C56.2615 214.009 37.6415 213.979 21.7415 200.769C3.11155 185.289 -5.37845 156.669 3.59155 138.649C4.39155 137.049 7.12155 136.409 11.7415 133.689L11.7315 133.709ZM110.962 138.689C133.412 114.879 140.162 89.0891 139.072 60.9791C138.862 55.4891 134.832 47.3092 130.402 45.4192C121.382 41.5692 117.402 50.1192 115.142 57.1692C106.922 82.7792 101.792 108.719 110.962 138.689ZM222.712 112.189C237.952 84.2292 255.042 56.7491 241.752 23.0391C215.432 48.2591 220.392 80.6092 222.712 112.189Z" fill="#00B4E1"></path></svg>